# xmcd
#
# Track frame offsets: 
#        150
#        15348
#        27770
#        43438
#        59047
#        84790
#        99521
#        114448
#        129124
#        143329
#        158126
#        171310
#        184479
#        198993
#        212440
#        224613
#        238200
#        252130
#        266818
#        279922
#        293030
#        306557
#
# Disc length: 4270 seconds
#
# Revision: 0
# Processed by: cddbd v1.5.1PL0 Copyright (c) Steve Scherf et al.
# Submitted via: ExactAudioCopy v0.95a5
#
DISCID=4010ac16
DTITLE=Victoria Spivey - Queen Victoria - 1927-1937
DYEAR=2002
DGENRE=Vocal
TTITLE0=Arkansas Road Blues
TTITLE1=The Allgator Pond Went Dry
TTITLE2=Christmas Morning Blues
TTITLE3=Organ Grinder Blues
TTITLE4=New Black Snake Blues Part 1 and 2
TTITLE5=Funny Feathers
TTITLE6=How Do You Do It That Way?
TTITLE7=Dirty T.B. Blues
TTITLE8=Moaning The Blues
TTITLE9=Telephoning The Blues
TTITLE10=Leaving You, Baby
TTITLE11=Shwered With The Blues
TTITLE12=Don't Trust Nobody Blues
TTITLE13=Sweet Pease
TTITLE14=T.B.'s Got Me
TTITLE15=Grievin' Me
TTITLE16=I Can't Last Long
TTITLE17=Hollywood Stomp
TTITLE18=Detroit Moan
TTITLE19=Give It To Him
TTITLE20=I've Got A Man In The 'Bama Mines
TTITLE21=Down Hill Pull
EXTD=
EXTT0=
EXTT1=
EXTT2=
EXTT3=
EXTT4=
EXTT5=
EXTT6=
EXTT7=
EXTT8=
EXTT9=
EXTT10=
EXTT11=
EXTT12=
EXTT13=
EXTT14=
EXTT15=
EXTT16=
EXTT17=
EXTT18=
EXTT19=
EXTT20=
EXTT21=
PLAYORDER=
